<svg width="30" height="38" viewBox="0 0 30 38" fill="none" xmlns="http://www.w3.org/2000/svg">
<path fill-rule="evenodd" clip-rule="evenodd" d="M1.32145 22.6172C1.46825 22.4699 1.64263 22.353 1.83462 22.2732C2.02662 22.1934 2.23244 22.1524 2.4403 22.1524C2.64817 22.1524 2.85399 22.1934 3.04598 22.2732C3.23797 22.353 3.41236 22.4699 3.55915 22.6172L15.0827 34.1586L26.6062 22.6172C26.903 22.3201 27.3054 22.1532 27.7251 22.1532C28.1447 22.1532 28.5472 22.3201 28.8439 22.6172C29.1407 22.9143 29.3074 23.3173 29.3074 23.7375C29.3074 24.1577 29.1407 24.5607 28.8439 24.8578L16.2015 37.5163C16.0547 37.6636 15.8804 37.7805 15.6884 37.8603C15.4964 37.9401 15.2906 37.9811 15.0827 37.9811C14.8748 37.9811 14.669 37.9401 14.477 37.8603C14.285 37.7805 14.1106 37.6636 13.9638 37.5163L1.32145 24.8578C1.17428 24.7108 1.05752 24.5362 0.977853 24.344C0.898186 24.1517 0.857178 23.9456 0.857178 23.7375C0.857178 23.5294 0.898186 23.3233 0.977853 23.1311C1.05752 22.9388 1.17428 22.7642 1.32145 22.6172ZM1.32145 15.3639C1.46825 15.5113 1.64263 15.6282 1.83462 15.7079C2.02662 15.7877 2.23244 15.8288 2.4403 15.8288C2.64817 15.8288 2.85399 15.7877 3.04598 15.7079C3.23797 15.6282 3.41236 15.5113 3.55915 15.3639L15.0827 3.82253L26.6062 15.3639C26.903 15.661 27.3054 15.8279 27.7251 15.8279C28.1447 15.8279 28.5472 15.661 28.8439 15.3639C29.1407 15.0668 29.3074 14.6638 29.3074 14.2436C29.3074 13.8234 29.1407 13.4205 28.8439 13.1234L16.2015 0.464863C16.0547 0.317508 15.8804 0.200598 15.6884 0.120829C15.4964 0.0410605 15.2906 0 15.0827 0C14.8748 0 14.669 0.0410605 14.477 0.120829C14.285 0.200598 14.1106 0.317508 13.9638 0.464863L1.32145 13.1234C1.17428 13.2703 1.05752 13.445 0.977853 13.6372C0.898186 13.8294 0.857178 14.0355 0.857178 14.2436C0.857178 14.4518 0.898186 14.6578 0.977853 14.8501C1.05752 15.0423 1.17428 15.2169 1.32145 15.3639Z" fill="#FFF9F9"/>
</svg>
